<svg width="15" height="15" viewBox="0 0 15 15" fill="none" xmlns="http://www.w3.org/2000/svg">
<path fill-rule="evenodd" clip-rule="evenodd" d="M7.5 1.5C4.18629 1.5 1.5 4.18629 1.5 7.5C1.5 10.8137 4.18629 13.5 7.5 13.5C10.8137 13.5 13.5 10.8137 13.5 7.5C13.5 4.18629 10.8137 1.5 7.5 1.5ZM0 7.5C0 3.35786 3.35786 0 7.5 0C11.6421 0 15 3.35786 15 7.5C15 11.6421 11.6421 15 7.5 15C3.35786 15 0 11.6421 0 7.5ZM7.5 2.7C7.91421 2.7 8.25 3.03579 8.25 3.45V7.03647L10.5354 8.17918C10.9059 8.36442 11.0561 8.81493 10.8708 9.18541C10.6856 9.55589 10.2351 9.70606 9.86459 9.52082L7.16459 8.17082C6.9105 8.04378 6.75 7.78408 6.75 7.5V3.45C6.75 3.03579 7.08579 2.7 7.5 2.7Z" fill="#353535"/>
</svg>
