<svg width="19" height="19" viewBox="0 0 19 19" fill="none" xmlns="http://www.w3.org/2000/svg">
<path fill-rule="evenodd" clip-rule="evenodd" d="M9.02309 1.83133C5.05119 1.83133 1.83133 5.05119 1.83133 9.02309C1.83133 12.995 5.05119 16.2149 9.02309 16.2149C10.9547 16.2149 12.7085 15.4533 14.0006 14.2141C14.0296 14.1736 14.0622 14.1349 14.0986 14.0985C14.135 14.0621 14.1737 14.0295 14.2142 14.0005C15.4533 12.7084 16.2149 10.9547 16.2149 9.02309C16.2149 5.05119 12.995 1.83133 9.02309 1.83133ZM16.0181 14.7231C17.2859 13.1692 18.0462 11.1849 18.0462 9.02309C18.0462 4.03978 14.0064 0 9.02309 0C4.03978 0 0 4.03978 0 9.02309C0 14.0064 4.03978 18.0462 9.02309 18.0462C11.185 18.0462 13.1693 17.2859 14.7232 16.0181L17.4369 18.7318C17.7944 19.0894 18.3742 19.0894 18.7318 18.7318C19.0894 18.3742 19.0894 17.7945 18.7318 17.4369L16.0181 14.7231Z" fill="#696969"/>
</svg>
